<svg xmlns="http://www.w3.org/2000/svg" viewBox="8375 3490.441 57.292 57.233">
  <defs>
    <style>
      .cls-1 {
        fill: #fff;
      }
    </style>
  </defs>
  <g id="cable-car-cabin_1_" data-name="cable-car-cabin (1)" transform="translate(8376 3491.178)">
    <g id="Group_54" data-name="Group 54" transform="translate(-1 -0.737)">
      <g id="Group_53" data-name="Group 53" transform="translate(0 0)">
        <path id="Path_633" data-name="Path 633" class="cls-1" d="M56.233-.01a.847.847,0,0,0-1.145-.668L30.931,6.755a3.815,3.815,0,0,0-7.055,2.017c0,.1.005.2.013.3L-.273,16.5a.847.847,0,0,0-.668,1.145,1.149,1.149,0,0,0,.954.668H.2l24.288-7.473a3.843,3.843,0,0,0,2.247,1.625v5.849H11.563a3.1,3.1,0,0,0-2.386,1.05,30.234,30.234,0,0,0-4.983,7.54H4.118l-.286.573A23.421,23.421,0,0,0,2.4,41.415l.191.764h.018a29.457,29.457,0,0,0,7.522,13.363,3.333,3.333,0,0,0,2.291.954H42.966a3.766,3.766,0,0,0,2.386-.954A29.061,29.061,0,0,0,53.1,40.86a22.81,22.81,0,0,0-1.548-13.38L51.315,27a30,30,0,0,0-5.008-7.63,3.1,3.1,0,0,0-2.386-1.05H28.648V12.468a3.833,3.833,0,0,0,2.863-3.7c0-.078,0-.156-.008-.233l24.061-7.4A.847.847,0,0,0,56.233-.01ZM5.359,28.816h8.877l.1.1-.1,11.358H4.118A21.481,21.481,0,0,1,5.359,28.816ZM51.27,40.27l-10.213-.1.1-11.358h8.877A21.48,21.48,0,0,1,51.27,40.27Zm-6.4-19.663a29.45,29.45,0,0,1,4.3,6.3H41.152a2.016,2.016,0,0,0-2,2V40.174a2.016,2.016,0,0,0,2,2H50.9A28.113,28.113,0,0,1,43.92,54.205a1.225,1.225,0,0,1-.954.382H12.422a1.107,1.107,0,0,1-.954-.382A28.113,28.113,0,0,1,4.485,42.179h9.751a1.937,1.937,0,0,0,2-1.909V28.911a2.016,2.016,0,0,0-2-2H6.209a29.45,29.45,0,0,1,4.3-6.3,1.458,1.458,0,0,1,.954-.382H43.92A1.107,1.107,0,0,1,44.875,20.607ZM27.694,10.681A1.909,1.909,0,1,1,29.6,8.772,1.915,1.915,0,0,1,27.694,10.681Z" transform="translate(1 0.737)"/>
        <path id="Path_634" data-name="Path 634" class="cls-1" d="M177.873,248.98V259.1a2.649,2.649,0,0,0,2.673,2.577h12.027A2.459,2.459,0,0,0,195.054,259V248.98a2.566,2.566,0,0,0-2.577-2.577H180.546A2.589,2.589,0,0,0,177.873,248.98Zm15.272,0V259a.652.652,0,0,1-.668.668H180.546a.681.681,0,0,1-.764-.668V248.98a.738.738,0,0,1,.764-.668h11.931A.652.652,0,0,1,193.145,248.98Z" transform="translate(-157.865 -218.759)"/>
        <path id="Path_635" data-name="Path 635" class="cls-1" d="M221.45,451.2h-7.636a.954.954,0,1,0,0,1.909h7.636a.954.954,0,1,0,0-1.909Z" transform="translate(-188.939 -400.652)"/>
        <path id="Path_636" data-name="Path 636" class="cls-1" d="M208.2,408.537H196.748a.954.954,0,0,0,0,1.909H208.2a.954.954,0,0,0,0-1.909Z" transform="translate(-173.782 -362.758)"/>
      </g>
    </g>
  </g>
</svg>
