<svg xmlns="http://www.w3.org/2000/svg" viewBox="8476 3695.444 52.28 49.065">
  <defs>
    <style>
      .cls-1 {
        fill: #fff;
      }
    </style>
  </defs>
  <g id="hot" transform="translate(8476 3679.698)">
    <g id="Group_82" data-name="Group 82" transform="translate(20.523 15.746)">
      <g id="Group_81" data-name="Group 81" transform="translate(0 0)">
        <path id="Path_670" data-name="Path 670" class="cls-1" d="M212.163,24.551c-.437-4.571-2.78-6.627-5.047-8.615a.766.766,0,0,0-1.149.99,9.384,9.384,0,0,1,1.412,4.291c.379,3.965-1.267,6.123-3.009,8.407-1.844,2.419-3.752,4.92-3.316,9.482s2.779,6.626,5.045,8.614a.766.766,0,0,0,1.149-.99,9.388,9.388,0,0,1-1.411-4.291c-.379-3.965,1.267-6.123,3.009-8.407C210.692,31.614,212.6,29.113,212.163,24.551Zm-7.85,18.035a13.017,13.017,0,0,0,.213,1.421,9.152,9.152,0,0,1-1.947-5.046c-.379-3.965,1.267-6.123,3.009-8.407,1.845-2.419,3.752-4.919,3.316-9.482a13,13,0,0,0-.213-1.421,9.15,9.15,0,0,1,1.947,5.046c.379,3.965-1.267,6.123-3.009,8.407C205.785,35.522,203.878,38.023,204.314,42.585Z" transform="translate(-200.992 -15.746)"/>
      </g>
    </g>
    <g id="Group_84" data-name="Group 84" transform="translate(10.006 15.746)">
      <g id="Group_83" data-name="Group 83" transform="translate(0 0)">
        <path id="Path_671" data-name="Path 671" class="cls-1" d="M109.164,24.552c-.437-4.571-2.78-6.627-5.046-8.615a.766.766,0,0,0-1.149.99,9.384,9.384,0,0,1,1.412,4.291c.379,3.965-1.267,6.123-3.009,8.407-1.844,2.419-3.752,4.92-3.316,9.482s2.779,6.626,5.045,8.614a.766.766,0,0,0,1.149-.99,9.388,9.388,0,0,1-1.411-4.291c-.379-3.965,1.267-6.123,3.009-8.407C107.693,31.615,109.6,29.114,109.164,24.552Zm-7.85,18.035a13.017,13.017,0,0,0,.213,1.421,9.152,9.152,0,0,1-1.947-5.046c-.379-3.965,1.267-6.123,3.009-8.407,1.844-2.419,3.751-4.92,3.316-9.482a12.992,12.992,0,0,0-.213-1.421,9.15,9.15,0,0,1,1.947,5.046c.379,3.965-1.267,6.123-3.009,8.407C102.786,35.523,100.879,38.024,101.315,42.586Z" transform="translate(-97.993 -15.747)"/>
      </g>
    </g>
    <g id="Group_86" data-name="Group 86" transform="translate(31.041 15.746)">
      <g id="Group_85" data-name="Group 85" transform="translate(0 0)">
        <path id="Path_672" data-name="Path 672" class="cls-1" d="M315.163,24.551c-.436-4.571-2.78-6.627-5.047-8.615a.766.766,0,0,0-1.149.99,9.384,9.384,0,0,1,1.412,4.291c.379,3.965-1.267,6.123-3.009,8.407-1.844,2.419-3.752,4.92-3.316,9.482s2.779,6.626,5.045,8.614a.766.766,0,0,0,1.149-.99,9.389,9.389,0,0,1-1.411-4.291c-.379-3.965,1.267-6.123,3.009-8.407C313.692,31.614,315.6,29.113,315.163,24.551Zm-7.85,18.035a13.013,13.013,0,0,0,.213,1.421,9.152,9.152,0,0,1-1.947-5.046c-.379-3.965,1.267-6.123,3.009-8.407,1.845-2.419,3.752-4.919,3.316-9.482a12.989,12.989,0,0,0-.213-1.421,9.15,9.15,0,0,1,1.947,5.046c.379,3.965-1.267,6.123-3.009,8.407C308.785,35.522,306.878,38.023,307.314,42.585Z" transform="translate(-303.992 -15.746)"/>
      </g>
    </g>
    <g id="Group_88" data-name="Group 88" transform="translate(0 43.315)">
      <g id="Group_87" data-name="Group 87">
        <path id="Path_673" data-name="Path 673" class="cls-1" d="M45.473,285.835a.766.766,0,0,0-.916,1.2,5.087,5.087,0,0,1,1.6,3.485c0,2.195-1.836,4.333-5.169,6.021a32.865,32.865,0,0,1-13.34,3.013.766.766,0,1,0,.053,1.531c11.395-.393,19.987-4.934,19.987-10.564a5.609,5.609,0,0,0-.233-1.6c2.145,1.695,3.3,3.608,3.3,5.552,0,2.892-2.484,5.659-6.994,7.792-4.692,2.219-10.948,3.441-17.615,3.441s-12.923-1.222-17.615-3.441c-4.51-2.132-6.994-4.9-6.994-7.792,0-1.943,1.151-3.857,3.3-5.552a5.609,5.609,0,0,0-.233,1.6c0,5.63,8.593,10.171,19.987,10.564a.766.766,0,1,0,.053-1.531,32.865,32.865,0,0,1-13.34-3.013c-3.333-1.688-5.169-3.826-5.169-6.021a5.087,5.087,0,0,1,1.6-3.485.766.766,0,0,0-.916-1.2C2.417,288.171,0,291.24,0,294.477c0,3.518,2.8,6.776,7.87,9.176,4.893,2.314,11.381,3.588,18.27,3.588s13.377-1.274,18.27-3.588c5.075-2.4,7.87-5.659,7.87-9.176C52.28,291.24,49.863,288.171,45.473,285.835Z" transform="translate(0 -285.745)"/>
      </g>
    </g>
  </g>
</svg>
