<svg xmlns="http://www.w3.org/2000/svg" viewBox="8251.598 3690.456 52.806 53.671">
  <defs>
    <style>
      .cls-1 {
        fill: #fff;
      }
    </style>
  </defs>
  <g id="lake" transform="translate(8243.983 3683)">
    <path id="Path_624" data-name="Path 624" class="cls-1" d="M243.258,44.982a4.97,4.97,0,1,0-4.97-4.97A4.976,4.976,0,0,0,243.258,44.982Zm0-7.952a2.982,2.982,0,1,1-2.982,2.982A2.985,2.985,0,0,1,243.258,37.03Z" transform="translate(-203.836 -27.586)"/>
    <circle id="Ellipse_4" data-name="Ellipse 4" class="cls-1" cx="0.994" cy="0.994" r="0.994" transform="translate(25.795 31.597)"/>
    <circle id="Ellipse_5" data-name="Ellipse 5" class="cls-1" cx="0.994" cy="0.994" r="0.994" transform="translate(22.371 27.503)"/>
    <path id="Path_626" data-name="Path 626" class="cls-1" d="M285.133,117.057a.994.994,0,0,0,1.358-.364l4.071-7.052,9.742,16.846a.994.994,0,1,0,1.721-1l-10.6-18.335a.994.994,0,0,0-1.721,0l-4.931,8.541A.994.994,0,0,0,285.133,117.057Z" transform="translate(-244.04 -89.713)"/>
    <path id="Path_627" data-name="Path 627" class="cls-1" d="M198.454,305.994a.994.994,0,0,0-.994-.994H170.036a.994.994,0,1,0,0,1.988H197.46A.994.994,0,0,0,198.454,305.994Z" transform="translate(-143.767 -261.765)"/>
    <path id="Path_628" data-name="Path 628" class="cls-1" d="M88.982,305.994a.994.994,0,0,0-.994-.994H80.036a.994.994,0,1,0,0,1.988h7.952A.994.994,0,0,0,88.982,305.994Z" transform="translate(-65.695 -261.765)"/>
    <path id="Path_629" data-name="Path 629" class="cls-1" d="M100.146,336.988h23.326a.994.994,0,0,0,0-1.988H100.146a.994.994,0,0,0,0,1.988Z" transform="translate(-83.14 -287.789)"/>
    <path id="Path_630" data-name="Path 630" class="cls-1" d="M205.032,365a.994.994,0,0,0,0,1.988H220.8a.994.994,0,1,0,0-1.988Z" transform="translate(-174.125 -313.813)"/>
    <path id="Path_631" data-name="Path 631" class="cls-1" d="M88.379,275.381A.994.994,0,0,0,87.6,275H36.778a.994.994,0,0,0-.965,1.233,27.26,27.26,0,0,0,10.508,15.506.994.994,0,1,0,1.164-1.612,25.294,25.294,0,0,1-9.4-13.14h48.21A25.137,25.137,0,0,1,62.187,294.88a24.849,24.849,0,0,1-11.44-2.755.994.994,0,1,0-.907,1.769,27.118,27.118,0,0,0,29.207-2.9,27.353,27.353,0,0,0,9.513-14.757A.994.994,0,0,0,88.379,275.381Z" transform="translate(-28.17 -235.742)"/>
    <path id="Path_632" data-name="Path 632" class="cls-1" d="M53.623,67.029a.994.994,0,0,0,1.358-.363l8.473-14.655,2.535,1.875a.994.994,0,0,0,1.182,0L70,51.791l2.833,2.1a.994.994,0,0,0,1.182,0l2.53-1.871,8.459,14.651a.994.994,0,1,0,1.722-.994L70.866,38.2a.994.994,0,0,0-1.721,0L53.26,65.671A.994.994,0,0,0,53.623,67.029ZM70,40.681l5.543,9.6-2.12,1.569-2.833-2.1a.994.994,0,0,0-1.182,0l-2.832,2.1-2.125-1.572Z" transform="translate(-43.215 -29.892)"/>
  </g>
</svg>
