<svg xmlns="http://www.w3.org/2000/svg" viewBox="8392 4139.825 25 25.175">
  <g id="facebook-messenger-logo" transform="translate(8391.226 4139.825)">
    <path id="Path_686" data-name="Path 686" d="M13.275,0C6.382,0,.774,5.3.774,11.814a11.541,11.541,0,0,0,4.482,9.064.847.847,0,1,0,1.05-1.328,9.858,9.858,0,0,1-3.839-7.736c0-5.581,4.848-10.121,10.808-10.121s10.807,4.54,10.807,10.121S19.233,21.936,13.275,21.936a11.51,11.51,0,0,1-3.056-.41.847.847,0,0,0-.642.08L6.07,23.592A.847.847,0,1,0,6.9,25.065l3.208-1.817a13.225,13.225,0,0,0,3.162.382c6.892,0,12.5-5.3,12.5-11.815S20.167,0,13.275,0Z" transform="translate(0 0)"/>
    <path id="Path_687" data-name="Path 687" d="M53.863,71.233a.846.846,0,0,0-.9.122l-6.534,5.537a.846.846,0,1,0,1.095,1.292l5.14-4.356v4.047a.847.847,0,0,0,1.394.646l6.535-5.537a.847.847,0,0,0-1.095-1.292l-5.141,4.356V72A.846.846,0,0,0,53.863,71.233Z" transform="translate(-40.234 -63.123)"/>
  </g>
</svg>
