<svg xmlns="http://www.w3.org/2000/svg" viewBox="8632 3496 51.566 51.568">
  <defs>
    <style>
      .cls-1 {
        fill: #fff;
      }
    </style>
  </defs>
  <g id="mountain" transform="translate(8631.994 3496)">
    <g id="Group_46" data-name="Group 46" transform="translate(0.006)">
      <g id="Group_45" data-name="Group 45">
        <path id="Path_620" data-name="Path 620" class="cls-1" d="M23.657,6.345A6.345,6.345,0,0,0,11.274,4.391a6.586,6.586,0,0,0-5.74,3.551A5.71,5.71,0,0,0,.006,13.656a1.007,1.007,0,0,0,1.007,1.007H7.107a1.007,1.007,0,0,0,0-2.014H2.158A3.684,3.684,0,0,1,5.693,9.954a3.814,3.814,0,0,1,.381.02A1.006,1.006,0,0,0,7.117,9.33a4.524,4.524,0,0,1,8.465,0,1.008,1.008,0,0,0,1.043.644A3.808,3.808,0,0,1,17,9.954a3.684,3.684,0,0,1,3.535,2.695H15.718a1.007,1.007,0,1,0,0,2.014h5.967a1.007,1.007,0,0,0,1.007-1.007,5.7,5.7,0,0,0-.8-2.921A6.29,6.29,0,0,0,23.657,6.345ZM20.564,9.2a5.641,5.641,0,0,0-3.4-1.261,6.606,6.606,0,0,0-3.858-3.247A4.331,4.331,0,1,1,20.564,9.2Z" transform="translate(-0.006)"/>
      </g>
    </g>
    <g id="Group_48" data-name="Group 48" transform="translate(10.582 12.649)">
      <g id="Group_47" data-name="Group 47">
        <path id="Path_621" data-name="Path 621" class="cls-1" d="M106.017,125.583h0a1.007,1.007,0,1,0,1.008,1.007A1.007,1.007,0,0,0,106.016,125.583Z" transform="translate(-105.009 -125.583)"/>
      </g>
    </g>
    <g id="Group_50" data-name="Group 50" transform="translate(0.006 8.771)">
      <g id="Group_49" data-name="Group 49">
        <path id="Path_622" data-name="Path 622" class="cls-1" d="M51.48,128.456,38.943,101.234a1.007,1.007,0,1,0-1.83.843L40.3,109l-3.961-4a1.007,1.007,0,0,0-1.624.275l-2.949,6.183-3.094-6.279a1.007,1.007,0,0,0-1.446-.4l-2.863,1.831L31.783,90.5l1.882,4.086a1.007,1.007,0,1,0,1.83-.843l-2.8-6.072a1.007,1.007,0,0,0-1.83,0L20.583,110.007l-4.429-8.295a1.007,1.007,0,0,0-1.777,0L5.571,118.2l-.016.03L.125,128.4a1.007,1.007,0,0,0,.888,1.482H50.565a1.007,1.007,0,0,0,.915-1.428ZM15.265,104.325l4.26,7.978-1.483,3.219-.751-.884a1.007,1.007,0,0,0-1.574.049l-2.056,2.75-1.454-2.512a1.007,1.007,0,0,0-1.431-.333l-1.543,1.031ZM2.693,127.87l4.53-8.483L11,116.864l1.681,2.9a1.008,1.008,0,0,0,.813.5l.059,0a1.007,1.007,0,0,0,.807-.4l2.213-2.961.539.635-4.758,10.33Zm11.881,0L22.8,110l4.561-2.917,3.515,7.133a1.007,1.007,0,0,0,.9.562h.006a1.007,1.007,0,0,0,.9-.573l3.227-6.765,6.848,6.913,6.226,13.518Z" transform="translate(-0.006 -87.088)"/>
      </g>
    </g>
    <g id="Group_52" data-name="Group 52" transform="translate(35.41 18.833)">
      <g id="Group_51" data-name="Group 51">
        <path id="Path_623" data-name="Path 623" class="cls-1" d="M353.244,187.285a1.009,1.009,0,1,0,.294.712A1.017,1.017,0,0,0,353.244,187.285Z" transform="translate(-351.525 -186.99)"/>
      </g>
    </g>
  </g>
</svg>
