<svg xmlns="http://www.w3.org/2000/svg" viewBox="8129.001 3496 49.999 51.135">
  <defs>
    <style>
      .cls-1 {
        fill: #fff;
      }
    </style>
  </defs>
  <g id="parachutist" transform="translate(7425.271 3100)">
    <g id="Group_44" data-name="Group 44" transform="translate(703.731 396)">
      <g id="Group_43" data-name="Group 43" transform="translate(0 0)">
        <path id="Path_617" data-name="Path 617" class="cls-1" d="M98.2,36.058A16.109,16.109,0,0,0,83.014,20.835v-.926a.909.909,0,1,0-1.818,0v.926A16.108,16.108,0,0,0,66.009,36.058a.9.9,0,0,0,.245.67.152.152,0,0,0,.014.014.909.909,0,0,0,.142.3l5.751,7.851v5.086a3.574,3.574,0,0,0,3.57,3.57h2.32V65.38a2.6,2.6,0,0,0,2.6,2.6h.034a2.586,2.586,0,0,0,1.687-.625,2.59,2.59,0,0,0,1.687.625h.035a2.6,2.6,0,0,0,2.6-2.6V53.545h1.787a3.575,3.575,0,0,0,3.572-3.57V45.25c0-.016,0-.032,0-.048l5.979-8.165a.908.908,0,0,0,.153-.735A.878.878,0,0,0,98.2,36.058ZM83.014,22.766h0c2.962.9,5.393,6.133,5.742,12.558a3.9,3.9,0,0,0-1.542.916,1.722,1.722,0,0,1-2.614,0,3.849,3.849,0,0,0-1.586-.93Zm-1.818,0V35.31a3.871,3.871,0,0,0-1.587.93,1.72,1.72,0,0,1-2.612,0,3.9,3.9,0,0,0-1.543-.916C75.8,28.9,78.232,23.669,81.2,22.766Zm-13.3,12.568A14.3,14.3,0,0,1,77.4,23.42a12.7,12.7,0,0,0-1.336,2.061A24.214,24.214,0,0,0,73.633,35.3a3.821,3.821,0,0,0-1.63.941,1.721,1.721,0,0,1-2.614,0A3.94,3.94,0,0,0,67.891,35.334Zm7.841,16.393a1.755,1.755,0,0,1-1.752-1.752v-2.6l3.19,4.356ZM84.87,65.38a.779.779,0,0,1-.777.778h-.035a.78.78,0,0,1-.778-.778.85.85,0,0,0-.009-.122.878.878,0,0,0,.009-.123v-5a.909.909,0,1,0-1.818,0v5a.879.879,0,0,0,.01.123.849.849,0,0,0-.01.122.779.779,0,0,1-.778.778h-.034a.78.78,0,0,1-.778-.778V53.545h5ZM82.143,48.545a1.7,1.7,0,1,1,1.7-1.7A1.707,1.707,0,0,1,82.143,48.545Zm1.825,3.182H80.66l.724-1.447A3.52,3.52,0,0,0,83.2,50.2Zm6.261-1.752a1.755,1.755,0,0,1-1.753,1.752h-1.21l2.964-4.045Zm-4.629.95-.825-1.65c-.01-.02-.022-.039-.033-.058a3.523,3.523,0,1,0-4.972.225l-.82,1.64-5.067-6.918a.941.941,0,0,0-.182-.25l-3.937-5.376a3.538,3.538,0,0,0,3.428-.922,1.737,1.737,0,0,1,1.307-.6h.009a1.739,1.739,0,0,1,1.3.6,3.506,3.506,0,0,0,4.992,0,1.721,1.721,0,0,1,2.612,0,3.508,3.508,0,0,0,4.992,0,1.721,1.721,0,0,1,2.614,0,3.51,3.51,0,0,0,2.5,1.043,3.371,3.371,0,0,0,1.233-.218Zm9.218-14.685a1.721,1.721,0,0,1-2.614,0,3.823,3.823,0,0,0-1.628-.941,24.233,24.233,0,0,0-2.427-9.817,12.619,12.619,0,0,0-1.335-2.061,14.294,14.294,0,0,1,9.5,11.913A3.954,3.954,0,0,0,94.818,36.239Z" transform="translate(-59.075 -16.841)"/>
        <path id="Path_618" data-name="Path 618" class="cls-1" d="M15.682,325.932a4.551,4.551,0,0,0-1.539.267,5,5,0,0,0-8.621,5.025.911.911,0,0,0,.814.5H19.3a.908.908,0,0,0,.906-.826c.014-.143.019-.286.019-.424A4.55,4.55,0,0,0,15.682,325.932ZM6.95,329.909a3.183,3.183,0,0,1,5.976-2.161.909.909,0,0,0,1.317.413,2.728,2.728,0,0,1,4.107,1.749Z" transform="translate(-5 -287.183)"/>
        <path id="Path_619" data-name="Path 619" class="cls-1" d="M321.682,1.932a4.551,4.551,0,0,0-1.539.267,5,5,0,0,0-8.621,5.025.911.911,0,0,0,.814.5H325.3a.909.909,0,0,0,.9-.827c.014-.143.019-.285.019-.423A4.55,4.55,0,0,0,321.682,1.932ZM312.95,5.909a3.183,3.183,0,0,1,5.976-2.161.909.909,0,0,0,1.317.412,2.728,2.728,0,0,1,4.107,1.749Z" transform="translate(-276.228 0)"/>
      </g>
    </g>
  </g>
</svg>
