<svg xmlns="http://www.w3.org/2000/svg" viewBox="10872 -679 37.257 37.233">
  <defs>
    <style>
      .cls-1 {
        fill: #fff;
      }
    </style>
  </defs>
  <g id="phone-receiver" transform="translate(10872 -679.188)">
    <g id="Group_9" data-name="Group 9" transform="translate(0 0.188)">
      <path id="Path_3" data-name="Path 3" class="cls-1" d="M37.239,29.572a1.8,1.8,0,0,1-.552,1.578l-5.246,5.206a2.952,2.952,0,0,1-.927.67,3.83,3.83,0,0,1-1.124.355q-.039,0-.237.02t-.513.02a18.182,18.182,0,0,1-2.426-.256,18.422,18.422,0,0,1-4.1-1.262,34.43,34.43,0,0,1-5.5-3.017,41.022,41.022,0,0,1-6.547-5.522,43.22,43.22,0,0,1-4.575-5.206A37.094,37.094,0,0,1,2.57,17.562,24.748,24.748,0,0,1,.914,13.736a20.3,20.3,0,0,1-.749-2.958A9.769,9.769,0,0,1,.007,8.826q.039-.71.039-.789A3.834,3.834,0,0,1,.4,6.913a2.956,2.956,0,0,1,.671-.927L6.317.74A1.737,1.737,0,0,1,7.579.188a1.471,1.471,0,0,1,.907.3,2.742,2.742,0,0,1,.671.73l4.22,8.007a1.919,1.919,0,0,1,.2,1.38,2.458,2.458,0,0,1-.671,1.262L10.971,13.8a.658.658,0,0,0-.138.256.973.973,0,0,0-.059.3,7.122,7.122,0,0,0,.71,1.893,17.379,17.379,0,0,0,1.459,2.307,25.619,25.619,0,0,0,2.8,3.136A26.125,26.125,0,0,0,18.9,24.5a18.222,18.222,0,0,0,2.307,1.479,6.133,6.133,0,0,0,1.42.572l.493.1a.94.94,0,0,0,.256-.059.659.659,0,0,0,.256-.138l2.248-2.288a2.416,2.416,0,0,1,1.657-.631,2.061,2.061,0,0,1,1.065.237h.039l7.612,4.5A1.984,1.984,0,0,1,37.239,29.572Z" transform="translate(0 -0.188)"/>
    </g>
  </g>
</svg>
