<svg xmlns="http://www.w3.org/2000/svg" viewBox="8395 4039 17.635 29.281">
  <g id="smartphone_5_" data-name="smartphone (5)" transform="translate(8297.65 4039)">
    <g id="Group_101" data-name="Group 101" transform="translate(97.35)">
      <path id="Path_688" data-name="Path 688" d="M114.984,27V2.273A2.276,2.276,0,0,0,112.711,0H99.623A2.276,2.276,0,0,0,97.35,2.273V27.008a2.276,2.276,0,0,0,2.273,2.273h13.088A2.285,2.285,0,0,0,114.984,27ZM98.816,5.27h14.7V21.911h-14.7Zm.808-3.8h13.088a.808.808,0,0,1,.808.808V3.8h-14.7V2.273A.808.808,0,0,1,99.623,1.466ZM98.816,27V23.371h14.7V27a.808.808,0,0,1-.808.808H99.623A.808.808,0,0,1,98.816,27Z" transform="translate(-97.35)"/>
      <path id="Path_689" data-name="Path 689" d="M211.259,416.6h-2.973a.736.736,0,1,0,0,1.471h2.973a.736.736,0,1,0,0-1.471Z" transform="translate(-200.958 -391.68)"/>
    </g>
  </g>
</svg>
